When an arrogant prince is cursed to become a Beast, the only way to break the spell is to love and be loved in return. But who could ever learn to love a Beast? After he imprisons Belle, a bookworm who dreams of life outside her provincial village, he sees her as difficult and stubborn while she views him as a monster. But the two soon taste the bitter-sweetness of finding you can change and learning you were wrong.

Format                           : Matroska
File size                        : 1.07 GiB
Duration                         : 1h 31mn
Overall bit rate                 : 1 665 Kbps
Movie name                       : BEAUTYANDTHEBEAST Title801
Encoded date                     : UTC 2010-11-24 17:18:57



Video
ID                               : 1
Format                           : AVC
Format/Info                      : Advanced Video Codec
Format profile                   : High@L4.0
Format settings, CABAC           : Yes
Format settings, ReFrames        : 3 frames
Codec ID                         : V_MPEG4/ISO/AVC
Duration                         : 1h 31mn
Bit rate mode                    : Variable
Bit rate                         : 1 024 Kbps
Maximum bit rate                 : 25.0 Mbps
Width                            : 1 920 pixels
Height                           : 1 080 pixels
Display aspect ratio             : 16:9
Frame rate                       : 23.976 fps
Color space                      : YUV
Chroma subsampling               : 4:2:0
Bit depth                        : 8 bits
Scan type                        : Progressive
Bits/(Pixel*Frame)               : 0.021
Stream size                      : 651 MiB (60%)
Writing library                  : x264 core 105 r1732 2b04482


Audio
ID                               : 2
Format                           : AC-3
Format/Info                      : Audio Coding 3
Mode extension                   : CM (complete main)
Codec ID                         : A_AC3
Duration                         : 1h 31mn
Bit rate mode                    : Constant
Bit rate                         : 640 Kbps
Channel(s)                       : 6 channels
Channel positions                : Front: L C R, Side: L R, LFE
Sampling rate                    : 48.0 KHz
Bit depth                        : 16 bits
Stream size                      : 420 MiB (38%)
Language                         : English
